<svg width="25" height="25" viewBox="0 0 25 25" fill="none" xmlns="http://www.w3.org/2000/svg">
<path d="M9.85071 13.8369C9.26016 12.746 9.416 11.3681 10.3346 10.4495C11.4501 9.33398 13.271 9.33398 14.3947 10.4495C15.5102 11.5649 15.5102 13.3858 14.3947 14.5095C13.8369 15.0672 13.0987 15.3461 12.3688 15.3461C11.9012 15.3461 11.4419 15.2231 11.0154 14.9934L1.49278 24.6473C2.00951 24.4094 2.52624 24.1798 3.03477 23.9747C3.01837 24.0485 2.99376 24.1141 2.99376 24.188C3.00196 24.6391 3.36286 25 3.81397 25H3.82217L14.4193 24.8933C14.8704 24.8851 15.2395 24.516 15.2313 24.0649C15.2231 23.6138 14.8622 23.2529 14.4111 23.2529H14.4029L4.68339 23.3513C11.852 20.8497 17.7739 21.3582 17.8477 21.3582C18.2578 21.391 18.6187 21.145 18.7172 20.7513C20.0541 15.6906 23.0315 10.5479 24.8359 7.72637L17.1014 0C14.2798 1.79626 9.14533 4.77362 4.08464 6.11056C3.69914 6.21718 3.43668 6.58628 3.47769 6.97998C3.48589 7.062 4.19127 15.0508 0.0328083 23.7122C0.0164041 23.7533 0.00820209 23.7943 0 23.8353L9.85071 13.8369Z" fill="black"/>
</svg>
