<svg width="35" height="40" viewBox="0 0 35 40" fill="none" xmlns="http://www.w3.org/2000/svg">
<path d="M34.192 8.424C25.104 7.728 18.12 0.328 18.048 0.256C17.896 0.0880001 17.688 0 17.464 0C17.24 0 17.032 0.0880001 16.88 0.256C16.808 0.328 9.848 7.728 0.736 8.424C0.32 8.456 0 8.808 0 9.224V15.232C0 23.456 3.432 30.952 9.408 35.808C11.832 37.776 14.464 39.168 17.248 39.968C17.32 39.992 17.392 40 17.464 40C17.536 40 17.616 39.992 17.688 39.968C20.464 39.168 23.096 37.776 25.52 35.808C31.496 30.952 34.928 23.456 34.928 15.232V9.224C34.928 8.808 34.608 8.456 34.192 8.424ZM13.128 20.664C13.128 20.656 13.128 20.656 13.128 20.648C13.12 20.656 13.128 20.664 13.128 20.664ZM30.56 20.68V20.696C30.544 23.096 28.584 25.04 26.184 25.04C23.784 25.04 21.824 23.096 21.808 20.696C21.808 20.688 21.808 20.688 21.808 20.68C21.808 20.664 21.808 20.656 21.808 20.64C21.808 20.552 21.832 20.472 21.856 20.392C21.864 20.368 21.872 20.352 21.88 20.328C21.888 20.312 21.888 20.304 21.896 20.288L24.856 14.648H18.264V26.64H20.504C20.944 26.64 21.304 27 21.304 27.44C21.304 27.88 20.944 28.24 20.504 28.24H17.464H14.424C13.984 28.24 13.624 27.88 13.624 27.44C13.624 27 13.984 26.64 14.424 26.64H16.664V14.648H10.072L13.032 20.288C13.04 20.304 13.04 20.312 13.048 20.328C13.056 20.344 13.064 20.368 13.072 20.392C13.104 20.472 13.12 20.552 13.12 20.64V20.68V20.696C13.104 23.096 11.144 25.04 8.744 25.04C6.344 25.04 4.384 23.096 4.368 20.696C4.368 20.688 4.368 20.688 4.368 20.68C4.368 20.664 4.368 20.656 4.368 20.64C4.368 20.552 4.392 20.472 4.416 20.392C4.424 20.368 4.432 20.352 4.44 20.328C4.448 20.312 4.448 20.304 4.456 20.288L8.032 13.472C8.064 13.408 8.112 13.352 8.16 13.296C8.304 13.144 8.512 13.04 8.736 13.04H16.664V11.784C16.664 11.344 17.024 10.984 17.464 10.984C17.904 10.984 18.264 11.344 18.264 11.784V13.04H26.184C26.416 13.04 26.624 13.144 26.776 13.312C26.824 13.36 26.864 13.408 26.896 13.472L30.472 20.288C30.48 20.304 30.48 20.312 30.488 20.328C30.496 20.344 30.504 20.368 30.512 20.392C30.544 20.472 30.56 20.552 30.56 20.64C30.56 20.648 30.568 20.656 30.568 20.664C30.56 20.672 30.56 20.68 30.56 20.68Z" fill="black"/>
</svg>
