<svg width="34" height="26" viewBox="0 0 34 26" fill="none" xmlns="http://www.w3.org/2000/svg">
<path d="M25.1938 5.982H33.0381C33.4815 5.982 33.8443 5.61921 33.8443 5.16774C33.8443 2.32186 31.5466 0 28.7168 0C28.5395 0 28.3621 0.00806179 28.1928 0.0241858H5.65146C2.53953 0.0241858 0 2.55565 0 5.66759V26H25.1938V5.982ZM28.7168 1.62046C30.3776 1.62046 31.7723 2.78945 32.1351 4.36154H25.2905C25.6533 2.78945 27.048 1.62046 28.7168 1.62046ZM12.6009 22.9686H5.26449C4.81301 22.9686 4.45829 22.6058 4.45829 22.1624C4.45829 21.711 4.81301 21.3562 5.26449 21.3562H12.6009C13.0443 21.3562 13.4071 21.711 13.4071 22.1624C13.4071 22.6058 13.0443 22.9686 12.6009 22.9686ZM19.9373 17.8896H5.26449C4.81301 17.8896 4.45829 17.5268 4.45829 17.0834C4.45829 16.64 4.81301 16.2772 5.26449 16.2772H19.9373C20.3807 16.2772 20.7435 16.64 20.7435 17.0834C20.7435 17.5268 20.3807 17.8896 19.9373 17.8896ZM19.9373 12.8105H5.26449C4.81301 12.8105 4.45829 12.4477 4.45829 12.0043C4.45829 11.5609 4.81301 11.1981 5.26449 11.1981H19.9373C20.3807 11.1981 20.7435 11.5609 20.7435 12.0043C20.7435 12.4477 20.3807 12.8105 19.9373 12.8105ZM19.9373 7.73146H5.26449C4.81301 7.73146 4.45829 7.36867 4.45829 6.92526C4.45829 6.48185 4.81301 6.11906 5.26449 6.11906H19.9373C20.3807 6.11906 20.7435 6.48185 20.7435 6.92526C20.7435 7.36867 20.3807 7.73146 19.9373 7.73146Z" fill="black"/>
</svg>
