<svg width="40" height="17" viewBox="0 0 40 17" fill="none" xmlns="http://www.w3.org/2000/svg">
<path d="M0.8 14.632C0.36 14.632 0 14.992 0 15.432C0 15.872 0.36 16.232 0.8 16.232H2.272H2.28H37.24H37.248H39.2C39.64 16.232 40 15.872 40 15.432C40 14.992 39.64 14.632 39.2 14.632H38.032V1.6H39.2C39.64 1.6 40 1.24 40 0.8C40 0.36 39.64 0 39.2 0H37.248C37.24 0 37.24 0 37.232 0H2.272C2.264 0 2.264 0 2.256 0H0.8C0.36 0 0 0.36 0 0.8C0 1.24 0.36 1.6 0.8 1.6H1.472V14.632H0.8ZM6.928 9.968H32.592C33.032 9.968 33.392 10.328 33.392 10.768C33.392 11.208 33.032 11.568 32.592 11.568H6.928C6.488 11.568 6.128 11.208 6.128 10.768C6.128 10.328 6.488 9.968 6.928 9.968ZM6.128 5.464C6.128 5.024 6.488 4.664 6.928 4.664H32.592C33.032 4.664 33.392 5.024 33.392 5.464C33.392 5.904 33.032 6.264 32.592 6.264H6.928C6.488 6.264 6.128 5.904 6.128 5.464Z" fill="black"/>
</svg>
