<svg width="16" height="16" viewBox="0 0 16 16" fill="none" xmlns="http://www.w3.org/2000/svg">
<path d="M8.00067 0C5.828 0 5.55534 0.00950001 4.702 0.0483334C3.85034 0.0873334 3.269 0.222167 2.76034 0.42C2.23417 0.624334 1.78783 0.897667 1.34317 1.3425C0.898167 1.78717 0.624834 2.2335 0.419834 2.7595C0.2215 3.26834 0.0865001 3.84984 0.0481667 4.70117C0.01 5.5545 0 5.82734 0 8.00001C0 10.1727 0.00966666 10.4445 0.0483334 11.2978C0.0875001 12.1495 0.222334 12.7308 0.42 13.2395C0.624501 13.7657 0.897834 14.212 1.34267 14.6567C1.78717 15.1017 2.2335 15.3757 2.75934 15.58C3.26834 15.7778 3.84984 15.9127 4.70134 15.9517C5.55467 15.9905 5.82717 16 7.99967 16C10.1725 16 10.4443 15.9905 11.2977 15.9517C12.1493 15.9127 12.7313 15.7778 13.2403 15.58C13.7663 15.3757 14.212 15.1017 14.6565 14.6567C15.1015 14.212 15.3748 13.7657 15.5798 13.2397C15.7765 12.7308 15.9115 12.1493 15.9515 11.298C15.9898 10.4447 15.9998 10.1727 15.9998 8.00001C15.9998 5.82734 15.9898 5.55467 15.9515 4.70134C15.9115 3.84967 15.7765 3.26834 15.5798 2.75967C15.3748 2.2335 15.1015 1.78717 14.6565 1.3425C14.2115 0.897501 13.7665 0.624167 13.2398 0.42C12.7298 0.222167 12.1482 0.0873334 11.2965 0.0483334C10.4432 0.00950001 10.1715 0 7.99817 0H8.00067Z" fill="black"/>
</svg>
