<svg width="20" height="14" viewBox="0 0 20 14" fill="none" xmlns="http://www.w3.org/2000/svg">
<path d="M0 9.64846C0 11.2639 1.31426 12.5782 2.92969 12.5782C4.54513 12.5782 5.85939 11.2639 5.85939 9.64846C5.85939 9.56366 5.84099 9.47991 5.80544 9.40291L3.84028 5.14501C4.76103 5.09197 5.67212 4.85032 6.49662 4.43802L6.56201 4.40536C7.27639 4.04817 8.03838 3.80595 8.82815 3.68423V13.5547H11.1719V3.68423C11.9617 3.80599 12.7237 4.04821 13.438 4.40532L13.5034 4.43798C14.328 4.85029 15.2391 5.09193 16.1598 5.14501L14.1946 9.40291C14.1591 9.47991 14.1407 9.56366 14.1407 9.64846C14.1407 11.2639 15.4549 12.5782 17.0704 12.5782C18.6858 12.5782 20.0001 11.2639 20.0001 9.64846C20.0001 9.56366 19.9817 9.47991 19.9461 9.40291L17.8937 4.95595C18.6019 4.73931 19.2508 4.3513 19.7894 3.81274C20.0182 3.58395 20.0182 3.21294 19.7894 2.98411C19.5606 2.75532 19.1896 2.75532 18.9608 2.98411C18.3157 3.62915 17.4581 3.98439 16.5459 3.98439C15.6762 3.98439 14.8053 3.7788 14.0275 3.38985L13.9621 3.35716C13.11 2.93114 12.1992 2.64665 11.2549 2.51153C11.2274 2.50758 11.1997 2.50563 11.1719 2.50563V1.17188C11.1719 0.52465 10.6473 0 10 0C9.3528 0 8.82815 0.52465 8.82815 1.17188V2.50563C8.80037 2.50563 8.77264 2.50762 8.74514 2.51153C7.80092 2.64661 6.89006 2.93114 6.03798 3.35716L5.97259 3.38985C5.19474 3.7788 4.32388 3.98439 3.45415 3.98439C2.54192 3.98439 1.68434 3.62915 1.0393 2.98415C0.81051 2.75536 0.439493 2.75536 0.210665 2.98415C-0.0181641 3.21294 -0.0181641 3.58395 0.210665 3.81278C0.749221 4.35134 1.39813 4.73935 2.10637 4.95599L0.0539455 9.40291C0.0183985 9.47991 0 9.56366 0 9.64846ZM15.6424 9.06252L17.0704 5.96857L18.4983 9.06252H15.6424ZM2.92969 5.96857L4.35767 9.06252H1.50172L2.92969 5.96857Z" fill="white"/>
</svg>
