<svg width="17" height="17" viewBox="0 0 17 17" fill="none" xmlns="http://www.w3.org/2000/svg">
<path d="M16.9657 12.7277V15.2869C16.9667 15.5244 16.918 15.7596 16.8228 15.9773C16.7276 16.195 16.5881 16.3904 16.413 16.551C16.2379 16.7116 16.0312 16.8339 15.8062 16.91C15.5811 16.9861 15.3427 17.0144 15.106 16.993C12.481 16.7078 9.95954 15.8108 7.74415 14.3741C5.68302 13.0644 3.93554 11.3169 2.62581 9.25576C1.18412 7.0303 0.286934 4.49654 0.00692402 1.85975C-0.0143935 1.62385 0.0136418 1.3861 0.0892444 1.16163C0.164847 0.937156 0.286361 0.730888 0.446049 0.555953C0.605737 0.381018 0.800101 0.24125 1.01677 0.145548C1.23343 0.0498454 1.46765 0.000305763 1.70451 8.27059e-05H4.26368C4.67767 -0.00399188 5.07903 0.14261 5.39292 0.412564C5.70682 0.682517 5.91185 1.0574 5.96979 1.46734C6.07781 2.28633 6.27813 3.09048 6.56694 3.86443C6.68171 4.16976 6.70655 4.50159 6.63851 4.82061C6.57048 5.13962 6.41241 5.43245 6.18306 5.66438L5.09968 6.74777C6.31405 8.88343 8.08235 10.6517 10.218 11.8661L11.3014 10.7827C11.5333 10.5534 11.8262 10.3953 12.1452 10.3273C12.4642 10.2592 12.796 10.2841 13.1014 10.3989C13.8753 10.6877 14.6795 10.888 15.4984 10.996C15.9128 11.0545 16.2913 11.2632 16.5618 11.5825C16.8323 11.9018 16.9761 12.3093 16.9657 12.7277Z" fill="white"/>
</svg>
