<svg width="13" height="12" viewBox="0 0 13 12" fill="none" xmlns="http://www.w3.org/2000/svg">
<path d="M12.6738 9.5814C12.6738 10.2946 12.4409 10.8837 11.9749 11.3488C11.54 11.7829 10.9654 12 10.2509 12C9.53644 12 8.94624 11.7519 8.48029 11.2558C8.01434 10.7597 7.78136 10.031 7.78136 9.06977C7.78136 7.86047 8.15412 6.44961 8.89964 4.83721C9.67622 3.22481 10.7168 1.6124 12.0215 0L13 0.883723C12.037 2.15504 11.3381 3.30233 10.9032 4.32558C10.4683 5.31783 10.2198 6.26357 10.1577 7.16279H10.2509C10.9654 7.16279 11.54 7.39535 11.9749 7.86047C12.4409 8.29457 12.6738 8.86822 12.6738 9.5814ZM4.84588 9.5814C4.84588 10.2946 4.62844 10.8837 4.19355 11.3488C3.75866 11.7829 3.18399 12 2.46953 12C1.75508 12 1.16487 11.7519 0.698925 11.2558C0.232975 10.7597 0 10.031 0 9.06977C0 7.86047 0.37276 6.44961 1.11828 4.83721C1.8638 3.22481 2.88889 1.6124 4.19355 0L5.21864 0.883723C4.25567 2.15504 3.54122 3.30233 3.07527 4.32558C2.64038 5.31783 2.39188 6.26357 2.32975 7.16279H2.46953C3.18399 7.16279 3.75866 7.39535 4.19355 7.86047C4.62844 8.29457 4.84588 8.86822 4.84588 9.5814Z" fill="#94744E"/>
</svg>
