<svg width="17" height="17" viewBox="0 0 17 17" fill="none" xmlns="http://www.w3.org/2000/svg">
<path d="M10.8092 1.18354C9.7332 1.00974 8.9221 0.463486 8.40895 0C7.88753 0.471762 7.08471 1.00974 6.00876 1.18354C4.70107 1.39046 3.33544 1.02629 1.93671 0.0910423L0 2.51607C0.852483 3.25268 2.09396 4.70107 1.9036 6.78675C1.86222 7.28335 1.70496 7.83787 1.54771 8.41723C1.14216 9.8739 0.686952 11.5209 1.58082 13.0769C2.50779 14.6991 4.80866 16.0151 8.41723 17C12.0258 16.0151 14.3267 14.6991 15.2536 13.0769C16.1475 11.5209 15.6923 9.8739 15.2868 8.41723C15.1295 7.8296 14.9722 7.28335 14.9309 6.78675C14.7405 4.70107 15.982 3.25268 16.8345 2.51607L14.8978 0.0910423C13.4907 1.02629 12.1168 1.39046 10.8092 1.18354Z" fill="black"/>
</svg>
