<svg width="5" height="5" viewBox="0 0 5 5" fill="none" xmlns="http://www.w3.org/2000/svg">
<path d="M3.05461 1.13639L2.49096 0L1.93641 1.13639C1.80004 1.40003 1.54549 1.59094 1.25457 1.6364L0 1.81822L0.909111 2.70006C1.11821 2.90916 1.21821 3.20916 1.17275 3.50917L0.963657 4.75465L2.08186 4.16373C2.20914 4.091 2.36369 4.06373 2.50006 4.06373C2.64551 4.06373 2.79097 4.10009 2.92734 4.16373L4.04554 4.75465L3.82736 3.50917C3.7819 3.21825 3.87281 2.90916 4.091 2.70006L5.00011 1.81822L3.74554 1.6364C3.43644 1.59094 3.18189 1.40003 3.05461 1.13639Z" fill="black"/>
</svg>
