<svg width="40" height="41" viewBox="0 0 40 41" fill="none" xmlns="http://www.w3.org/2000/svg">
<path d="M39.1777 20.8208C39.3909 20.8208 39.5959 20.7388 39.7599 20.583C40.0796 20.2551 40.0796 19.7385 39.7599 19.4187L37.546 17.2048L33.11 12.7688V0.82201C33.11 0.362832 32.741 0.00204992 32.29 0.00204992H26.6651C26.2141 0.00204992 25.8451 0.362832 25.8451 0.82201V5.50398L20.581 0.239838C20.2612 -0.0799461 19.7364 -0.0799461 19.4167 0.239838L2.48448 17.172C2.46808 17.1966 2.44348 17.2212 2.41888 17.2376L0.245988 19.4187C-0.081996 19.7385 -0.081996 20.2551 0.245988 20.583C0.565772 20.9028 1.08235 20.9028 1.40213 20.583L2.21389 19.7713V35.2357C2.21389 38.4172 4.79677 41.0001 7.97821 41.0001H32.0276C35.2009 41.0001 37.7838 38.4172 37.7838 35.2357V19.7713L38.5955 20.583C38.7595 20.7388 38.9645 20.8208 39.1777 20.8208ZM29.9203 19.8041C29.8383 19.8533 27.9032 21.034 28.0836 23.0265C28.1164 23.3709 28.2476 23.8547 28.387 24.3549C28.8216 25.9292 29.4202 28.0939 28.1984 30.2258C27.0177 32.2839 24.402 33.8254 20.212 34.9405C20.1464 34.9569 20.0726 34.9651 19.9988 34.9651C19.925 34.9651 19.8594 34.9569 19.7856 34.9405C15.5956 33.8254 12.98 32.2839 11.7992 30.2258C10.5775 28.0939 11.1679 25.9374 11.6106 24.3549C11.75 23.8465 11.8812 23.3709 11.914 23.0265C12.0944 21.0258 10.1593 19.8451 10.0773 19.7959C9.87232 19.6729 9.73293 19.4679 9.69193 19.2383C9.65093 19.0087 9.70833 18.7627 9.85592 18.5823L12.7914 14.9007C13.0702 14.5481 13.5867 14.4907 13.9393 14.7695C15.1857 15.7535 16.3336 16.1635 17.3586 15.9995C18.6131 15.7945 19.3101 14.7859 19.3183 14.7777C19.6216 14.3186 20.3842 14.3186 20.6876 14.7777C20.6876 14.7859 21.401 15.8109 22.6637 16.0077C23.6886 16.1635 24.8284 15.7453 26.0665 14.7695C26.4191 14.4907 26.9357 14.5481 27.2145 14.9007L30.1499 18.5823C30.2975 18.7709 30.3549 19.0087 30.3139 19.2465C30.2647 19.4843 30.1253 19.6893 29.9203 19.8041Z" fill="black"/>
</svg>
